<svg xmlns="http://www.w3.org/2000/svg" viewBox="0 0 590.21 64.31"><defs><style>.cls-1{fill:#fff;}.cls-2{fill:none;}.cls-3{fill:#00a8cc;}.cls-4{fill:#333e5b;}.cls-5{fill:#ffa41b;}.cls-6{fill:#222938;}.cls-7{fill:#078599;}.cls-8{fill:#d8861a;}</style></defs><title>logoLight</title><g id="Layer_2" data-name="Layer 2"><g id="Layer_1-2" data-name="Layer 1"><path class="cls-1" d="M48.49,17.5A10.78,10.78,0,0,0,48,16.28,23.36,23.36,0,0,0,43.2,9.13,22.48,22.48,0,0,0,27.33,2.62H2a1.73,1.73,0,0,0-1.4.58A1.71,1.71,0,0,0,0,4.59v56.7a2.07,2.07,0,0,0,.52,1.39A1.94,1.94,0,0,0,2,63.26H14.42a1.9,1.9,0,0,0,1.4-.58,2.19,2.19,0,0,0,.58-1.39V48.9A1.86,1.86,0,0,1,17,47.51a2,2,0,0,1,1.39-.59h7.21a31.16,31.16,0,0,0,10.65-1.68,21.69,21.69,0,0,0,7.55-4.65c.41-.41.82-.88,1.17-1.28a17.47,17.47,0,0,0,3.31-5.7,23.38,23.38,0,0,0,1.51-8.67A20.94,20.94,0,0,0,48.49,17.5Zm-16.57,12c-1,1.4-2.5,2-4.65,2h-8.9A1.8,1.8,0,0,1,17,30.93a1.69,1.69,0,0,1-.58-1.39V19.83a1.73,1.73,0,0,1,.58-1.4,1.82,1.82,0,0,1,1.39-.58h7.85a6.6,6.6,0,0,1,3.09.64,7.07,7.07,0,0,1,2.21,1.57,6.31,6.31,0,0,1,1.39,2.27,8.27,8.27,0,0,1,.47,2.61A7.42,7.42,0,0,1,31.92,29.48Z"/><path class="cls-1" d="M113.85,20.76a32.27,32.27,0,0,0-6.74-10A31.34,31.34,0,0,0,97.1,4,29.8,29.8,0,0,0,85,1.51a26.58,26.58,0,0,0-4.82.41A27.81,27.81,0,0,0,72.74,4a30.39,30.39,0,0,0-9.94,6.75,32.14,32.14,0,0,0-6.69,10,29.63,29.63,0,0,0-2.5,12.15,30.11,30.11,0,0,0,2.5,12.21,32.85,32.85,0,0,0,6.69,10,31.34,31.34,0,0,0,9.94,6.75A33.21,33.21,0,0,0,85,64.31,30.59,30.59,0,0,0,97.1,61.87a32.35,32.35,0,0,0,10-6.75,33,33,0,0,0,6.74-10,31,31,0,0,0,2.5-12.21A30.46,30.46,0,0,0,113.85,20.76Zm-33.49,27a9.57,9.57,0,0,1-1.22-.47,15,15,0,0,1-4.77-3.49,14.72,14.72,0,0,1-3.2-4.94,16.05,16.05,0,0,1-1.16-6A16.21,16.21,0,0,1,71.17,27,14.72,14.72,0,0,1,74.37,22a15.81,15.81,0,0,1,4.77-3.43,3.81,3.81,0,0,1,1.16-.41A12.48,12.48,0,0,1,85,17.33a13.77,13.77,0,0,1,5.76,1.28A16.69,16.69,0,0,1,95.53,22,15.68,15.68,0,0,1,98.79,27a16.56,16.56,0,0,1,0,11.92,16.54,16.54,0,0,1-8.08,8.43A13.77,13.77,0,0,1,85,48.61,13.43,13.43,0,0,1,80.36,47.8Z"/><path class="cls-1" d="M178.16,61.05c-1.8-2.44-3.89-5.11-6.22-8.08s-4.54-5.75-6.63-8.55a1.4,1.4,0,0,1-.29-1.33,2.19,2.19,0,0,1,.87-1.22,15.1,15.1,0,0,0,3.55-3.09,22.11,22.11,0,0,0,2.73-4.18,20.35,20.35,0,0,0,1.8-5,22.75,22.75,0,0,0,.64-5.23A24.11,24.11,0,0,0,173,15.58a21.4,21.4,0,0,0-4.48-6.86,21,21,0,0,0-6.92-4.53,24.6,24.6,0,0,0-8.9-1.57H126.93a1.87,1.87,0,0,0-1.39.58A1.71,1.71,0,0,0,125,4.59v56.7a2,2,0,0,0,2,2h12.45a2,2,0,0,0,2-2V47.85a1.71,1.71,0,0,1,.59-1.39,1.86,1.86,0,0,1,1.39-.58h1.8a3.26,3.26,0,0,1,1.75.46,3,3,0,0,1,1.39,1.11c1.75,2.44,3.43,4.82,5.18,7.21s3.49,4.71,5.23,7a3.57,3.57,0,0,0,1.46,1.11,4.36,4.36,0,0,0,1.8.46h15.41a1,1,0,0,0,1-.81A1.34,1.34,0,0,0,178.16,61.05Zm-20.52-33.9a6.94,6.94,0,0,1-1.52,1.92,5.78,5.78,0,0,1-2,1.17,6.7,6.7,0,0,1-2.1.35h-8.72a1.87,1.87,0,0,1-1.39-.59,1.71,1.71,0,0,1-.59-1.39V19.83a2,2,0,0,1,2-2h8.72a5.83,5.83,0,0,1,3,.7,5.47,5.47,0,0,1,1.86,1.74,5.72,5.72,0,0,1,1,2.15,6.62,6.62,0,0,1,.29,2A6.85,6.85,0,0,1,157.64,27.15Z"/><path class="cls-1" d="M225.67,3.2a1.77,1.77,0,0,0-1.46-.58H180.49a1.73,1.73,0,0,0-1.4.58,1.71,1.71,0,0,0-.58,1.39V15.87a1.88,1.88,0,0,0,.58,1.4,1.73,1.73,0,0,0,1.4.58h11.74a1.8,1.8,0,0,1,1.46.58,2.08,2.08,0,0,1,.52,1.4V61.29a2.14,2.14,0,0,0,.58,1.39,1.91,1.91,0,0,0,1.45.58h12.39a1.74,1.74,0,0,0,1.45-.58,1.89,1.89,0,0,0,.59-1.39V19.83a1.88,1.88,0,0,1,.58-1.4,1.74,1.74,0,0,1,1.39-.58h11.57a1.77,1.77,0,0,0,1.46-.58,2.14,2.14,0,0,0,.58-1.4V4.59A1.91,1.91,0,0,0,225.67,3.2Z"/><path class="cls-1" d="M278,3.2a1.71,1.71,0,0,0-1.4-.58H234.51a1.71,1.71,0,0,0-1.4.58,1.71,1.71,0,0,0-.58,1.39v56.7a1.87,1.87,0,0,0,.58,1.39,1.71,1.71,0,0,0,1.4.58H247a1.69,1.69,0,0,0,1.39-.58,1.89,1.89,0,0,0,.59-1.39V43a1.73,1.73,0,0,1,.58-1.4A1.9,1.9,0,0,1,250.9,41h22.39a1.89,1.89,0,0,0,1.39-.58,1.92,1.92,0,0,0,.59-1.45V27.39a1.73,1.73,0,0,0-.59-1.4,1.69,1.69,0,0,0-1.39-.58H250.9a2.12,2.12,0,0,1-1.39-.58,1.88,1.88,0,0,1-.58-1.4V20a1.71,1.71,0,0,1,.58-1.39A1.86,1.86,0,0,1,250.9,18h25.7a1.93,1.93,0,0,0,1.4-.59,1.9,1.9,0,0,0,.58-1.45V4.59A1.79,1.79,0,0,0,278,3.2Z"/><path class="cls-1" d="M344.23,20.76A31.67,31.67,0,0,0,327.48,4a29.63,29.63,0,0,0-12.15-2.5A30.11,30.11,0,0,0,303.12,4a31.59,31.59,0,0,0-9.94,6.75,32,32,0,0,0-6.69,10A29.47,29.47,0,0,0,284,32.91a30,30,0,0,0,2.5,12.21,31.45,31.45,0,0,0,16.63,16.75,30.92,30.92,0,0,0,12.21,2.44,30.42,30.42,0,0,0,12.15-2.44,32.3,32.3,0,0,0,10-6.75,32,32,0,0,0,6.75-10,30.11,30.11,0,0,0,2.5-12.21A29.63,29.63,0,0,0,344.23,20.76ZM329.17,38.9a15.85,15.85,0,0,1-3.26,4.94,16.22,16.22,0,0,1-4.77,3.49,14.25,14.25,0,0,1-5.81,1.28,14.08,14.08,0,0,1-5.82-1.28,16.31,16.31,0,0,1-8-8.43,15.89,15.89,0,0,1,0-11.92,15.52,15.52,0,0,1,3.2-4.94,16.41,16.41,0,0,1,4.76-3.43,14.08,14.08,0,0,1,5.82-1.28,14.25,14.25,0,0,1,5.81,1.28A17.16,17.16,0,0,1,325.91,22,15.85,15.85,0,0,1,329.17,27a16.21,16.21,0,0,1,1.16,5.93A16.05,16.05,0,0,1,329.17,38.9Z"/><path class="cls-1" d="M399.93,48.61a1.86,1.86,0,0,0-1.39-.58h-25a2,2,0,0,1-1.45-.58,2.08,2.08,0,0,1-.52-1.4V4.59A1.92,1.92,0,0,0,371,3.2a1.9,1.9,0,0,0-1.45-.58H357.19a1.76,1.76,0,0,0-1.45.58,1.71,1.71,0,0,0-.58,1.39v56.7a1.87,1.87,0,0,0,.58,1.39,1.76,1.76,0,0,0,1.45.58h41.35a2,2,0,0,0,2-2V50A1.71,1.71,0,0,0,399.93,48.61Z"/><path class="cls-1" d="M422.73,3.26a1.91,1.91,0,0,0-1.4-.59H408.89a1.78,1.78,0,0,0-1.46.59,2.05,2.05,0,0,0-.52,1.39V61.29a2.07,2.07,0,0,0,.52,1.39,1.77,1.77,0,0,0,1.46.58h12.44a2,2,0,0,0,2-2V4.65A1.9,1.9,0,0,0,422.73,3.26Z"/><path class="cls-1" d="M492,20.76a31.29,31.29,0,0,0-6.75-10A31.7,31.7,0,0,0,475.29,4a30.11,30.11,0,0,0-12.21-2.5A29.63,29.63,0,0,0,450.93,4a31.29,31.29,0,0,0-10,6.75,33,33,0,0,0-6.69,10,30.46,30.46,0,0,0-2.5,12.15,31,31,0,0,0,2.5,12.21,33.78,33.78,0,0,0,6.69,10,32.3,32.3,0,0,0,10,6.75,30.42,30.42,0,0,0,12.15,2.44,30.92,30.92,0,0,0,12.21-2.44,32.74,32.74,0,0,0,9.94-6.75,32,32,0,0,0,6.75-10,30,30,0,0,0,2.5-12.21A29.47,29.47,0,0,0,492,20.76ZM476.92,38.9a14.87,14.87,0,0,1-3.26,4.94,15.47,15.47,0,0,1-4.77,3.49,13.83,13.83,0,0,1-11.62,0,16.22,16.22,0,0,1-4.77-3.49,16.62,16.62,0,0,1-3.2-4.94,15.89,15.89,0,0,1,0-11.92A16.62,16.62,0,0,1,452.5,22a17.16,17.16,0,0,1,4.77-3.43,13.83,13.83,0,0,1,11.62,0A16.32,16.32,0,0,1,473.66,22,14.87,14.87,0,0,1,476.92,27a16.21,16.21,0,0,1,1.16,5.93A16.05,16.05,0,0,1,476.92,38.9Z"/><path class="cls-2" d="M569.9,40.24c.28.2.64.46,1.05.8C570.54,40.7,570.18,40.44,569.9,40.24Z"/><path class="cls-2" d="M576.84,26.71A8.74,8.74,0,0,1,577,29,8.74,8.74,0,0,0,576.84,26.71Z"/><path class="cls-2" d="M572,42c3.72,3.54,8.75,11.27-2.72,21.25C580.75,53.24,575.72,45.51,572,42Z"/><path class="cls-2" d="M573.81,20.88A21.25,21.25,0,0,0,569.28,17h0A21.25,21.25,0,0,1,573.81,20.88Z"/><path class="cls-3" d="M555.55,16.39c4.75,0,9.34.21,13.73.63h0c3.36-2.43,4.62-5,4.76-7.4a8.16,8.16,0,0,0,0-1.4,9.52,9.52,0,0,0-.69-2.63,14.5,14.5,0,0,0-1.87-3.21A18.41,18.41,0,0,0,570.2.9c-.55-.58-.92-.9-.92-.9H531.87A4.89,4.89,0,0,0,527,4.88V19a148.35,148.35,0,0,1,20.92-2.39Q551.66,16.4,555.55,16.39Z"/><path class="cls-4" d="M569.33,39.88l-.05-.05c5.44-3.9,7.49-7.59,7.72-10.82a8.74,8.74,0,0,0-.16-2.3,12.55,12.55,0,0,0-3-5.83A21.25,21.25,0,0,0,569.28,17c-4.39-.42-9-.63-13.73-.63q-3.88,0-7.64.17A148.35,148.35,0,0,0,527,19V41.82a153.48,153.48,0,0,1,28.56-2.56Q562.75,39.26,569.33,39.88Z"/><path class="cls-5" d="M572,42c-.37-.36-.72-.66-1-.93s-.77-.6-1.05-.8l-.52-.36h0q-6.58-.62-13.78-.62A153.48,153.48,0,0,0,527,41.82V58.34a4.88,4.88,0,0,0,4.88,4.88h37.41C580.75,53.24,575.72,45.51,572,42Z"/><path class="cls-6" d="M573.14,17.38c-1.25-.15-2.56-.26-3.86-.36h0a21.25,21.25,0,0,1,4.53,3.86,12.55,12.55,0,0,1,3,5.83A8.74,8.74,0,0,1,577,29c-.23,3.23-2.28,6.92-7.72,10.82l.05.05h0c1.88.11,3.71.32,5.48.53a121.1,121.1,0,0,1,15.35,2.76V20.36a123.12,123.12,0,0,0-16.86-3Z"/><path class="cls-7" d="M585.33,0H569.28s.37.32.92.9a18.41,18.41,0,0,1,1.24,1.48,14.5,14.5,0,0,1,1.87,3.21A9.52,9.52,0,0,1,574,8.22a8.16,8.16,0,0,1,0,1.4c-.14,2.39-1.4,5-4.76,7.4,1.3.1,2.61.21,3.86.36h.21a123.12,123.12,0,0,1,16.86,3V4.88A4.88,4.88,0,0,0,585.33,0Z"/><path class="cls-8" d="M569.38,39.88l.52.36c.28.2.64.46,1.05.8s.68.57,1,.93c3.72,3.54,8.75,11.27-2.72,21.25h16.05a4.87,4.87,0,0,0,4.88-4.88V43.17a121.1,121.1,0,0,0-15.35-2.76C573.09,40.2,571.26,40,569.38,39.88Z"/></g></g></svg>