<svg id="Layer_1" data-name="Layer 1" xmlns="http://www.w3.org/2000/svg" viewBox="0 0 590.21 64.31"><defs><style>.cls-1{fill:#333e5b;}.cls-2{fill:none;}.cls-3{fill:#00a8cc;}.cls-4{fill:#ffa41b;}.cls-5{fill:#222938;}.cls-6{fill:#078599;}.cls-7{fill:#d8861a;}</style></defs><title>logo</title><path class="cls-1" d="M53.12,79.19A10.1,10.1,0,0,0,52.66,78a23.36,23.36,0,0,0-4.83-7.15A22.48,22.48,0,0,0,32,64.31H6.61a1.73,1.73,0,0,0-1.4.58,1.71,1.71,0,0,0-.58,1.39V123a2.07,2.07,0,0,0,.52,1.39,1.94,1.94,0,0,0,1.46.58H19.05a1.9,1.9,0,0,0,1.4-.58A2.19,2.19,0,0,0,21,123V110.59a1.86,1.86,0,0,1,.58-1.39,2,2,0,0,1,1.39-.59h7.21a31.16,31.16,0,0,0,10.65-1.68,21.69,21.69,0,0,0,7.55-4.65c.41-.41.82-.88,1.17-1.28a17.47,17.47,0,0,0,3.31-5.7,23.38,23.38,0,0,0,1.51-8.67A20.94,20.94,0,0,0,53.12,79.19Zm-16.57,12c-1,1.4-2.5,2-4.65,2H23a1.8,1.8,0,0,1-1.39-.59A1.69,1.69,0,0,1,21,91.23V81.52a1.73,1.73,0,0,1,.58-1.4A1.82,1.82,0,0,1,23,79.54h7.85a6.6,6.6,0,0,1,3.09.64,7.07,7.07,0,0,1,2.21,1.57A6.31,6.31,0,0,1,37.54,84,8.27,8.27,0,0,1,38,86.63,7.42,7.42,0,0,1,36.55,91.17Z" transform="translate(-4.63 -61.69)"/><path class="cls-1" d="M118.48,82.45a32.27,32.27,0,0,0-6.74-10,31.34,31.34,0,0,0-10-6.75,29.8,29.8,0,0,0-12.15-2.5,26.58,26.58,0,0,0-4.82.41,27.81,27.81,0,0,0-7.39,2.09,30.39,30.39,0,0,0-9.94,6.75,32.14,32.14,0,0,0-6.69,10,29.63,29.63,0,0,0-2.5,12.15,30.11,30.11,0,0,0,2.5,12.21,32.85,32.85,0,0,0,6.69,10,31.34,31.34,0,0,0,9.94,6.75A33.21,33.21,0,0,0,89.58,126a30.59,30.59,0,0,0,12.15-2.44,32.35,32.35,0,0,0,10-6.75,33,33,0,0,0,6.74-10A31,31,0,0,0,121,94.6,30.46,30.46,0,0,0,118.48,82.45ZM85,109.49a9.57,9.57,0,0,1-1.22-.47A15,15,0,0,1,79,105.53a14.72,14.72,0,0,1-3.2-4.94,16.05,16.05,0,0,1-1.16-6,16.21,16.21,0,0,1,1.16-5.93A14.72,14.72,0,0,1,79,83.73a15.81,15.81,0,0,1,4.77-3.43,3.81,3.81,0,0,1,1.16-.41A12.48,12.48,0,0,1,89.58,79a13.77,13.77,0,0,1,5.76,1.28,16.69,16.69,0,0,1,4.82,3.43,15.68,15.68,0,0,1,3.26,4.94,16.56,16.56,0,0,1,0,11.92A16.54,16.54,0,0,1,95.34,109a13.77,13.77,0,0,1-5.76,1.28A13.43,13.43,0,0,1,85,109.49Z" transform="translate(-4.63 -61.69)"/><path class="cls-1" d="M182.79,122.74c-1.8-2.44-3.89-5.11-6.22-8.08s-4.54-5.76-6.63-8.55a1.4,1.4,0,0,1-.29-1.33,2.19,2.19,0,0,1,.87-1.22,15.1,15.1,0,0,0,3.55-3.09,22.11,22.11,0,0,0,2.73-4.18,20.35,20.35,0,0,0,1.8-5,22.75,22.75,0,0,0,.64-5.23,24.11,24.11,0,0,0-1.62-8.84,21.4,21.4,0,0,0-4.48-6.86,21,21,0,0,0-6.92-4.53,24.6,24.6,0,0,0-8.9-1.57H131.56a1.87,1.87,0,0,0-1.39.58,1.71,1.71,0,0,0-.58,1.39V123a2,2,0,0,0,2,2H144a2,2,0,0,0,2-2V109.54a1.71,1.71,0,0,1,.59-1.39,1.86,1.86,0,0,1,1.39-.58h1.8a3.26,3.26,0,0,1,1.75.46,3,3,0,0,1,1.39,1.11c1.75,2.44,3.43,4.82,5.18,7.21s3.49,4.71,5.23,7a3.57,3.57,0,0,0,1.46,1.11,4.36,4.36,0,0,0,1.8.46H182a1,1,0,0,0,1-.81A1.34,1.34,0,0,0,182.79,122.74Zm-20.52-33.9a6.94,6.94,0,0,1-1.52,1.92,5.78,5.78,0,0,1-2,1.17,6.7,6.7,0,0,1-2.1.35H148a1.87,1.87,0,0,1-1.39-.59A1.71,1.71,0,0,1,146,90.3V81.52a2,2,0,0,1,2-2h8.72a5.83,5.83,0,0,1,3,.7A5.47,5.47,0,0,1,161.51,82a5.72,5.72,0,0,1,1,2.15,6.62,6.62,0,0,1,.29,2A6.85,6.85,0,0,1,162.27,88.84Z" transform="translate(-4.63 -61.69)"/><path class="cls-1" d="M230.3,64.89a1.77,1.77,0,0,0-1.46-.58H185.12a1.73,1.73,0,0,0-1.4.58,1.71,1.71,0,0,0-.58,1.39V77.56a1.88,1.88,0,0,0,.58,1.4,1.73,1.73,0,0,0,1.4.58h11.74a1.8,1.8,0,0,1,1.46.58,2.08,2.08,0,0,1,.52,1.4V123a2.14,2.14,0,0,0,.58,1.39,1.91,1.91,0,0,0,1.45.58h12.39a1.74,1.74,0,0,0,1.45-.58,1.89,1.89,0,0,0,.59-1.39V81.52a1.88,1.88,0,0,1,.58-1.4,1.74,1.74,0,0,1,1.39-.58h11.57A1.77,1.77,0,0,0,230.3,79a2.14,2.14,0,0,0,.58-1.4V66.28A1.91,1.91,0,0,0,230.3,64.89Z" transform="translate(-4.63 -61.69)"/><path class="cls-1" d="M282.63,64.89a1.71,1.71,0,0,0-1.4-.58H239.14a2,2,0,0,0-2,2V123a1.87,1.87,0,0,0,.58,1.39,1.71,1.71,0,0,0,1.4.58h12.44a1.69,1.69,0,0,0,1.39-.58,1.89,1.89,0,0,0,.59-1.39V104.66a1.73,1.73,0,0,1,.58-1.4,1.9,1.9,0,0,1,1.39-.58h22.39a1.89,1.89,0,0,0,1.39-.58,1.92,1.92,0,0,0,.59-1.45V89.08a1.73,1.73,0,0,0-.59-1.4,1.69,1.69,0,0,0-1.39-.58H255.53a2.12,2.12,0,0,1-1.39-.58,1.88,1.88,0,0,1-.58-1.4V81.69a1.71,1.71,0,0,1,.58-1.39,1.86,1.86,0,0,1,1.39-.58h25.7a1.93,1.93,0,0,0,1.4-.59,1.9,1.9,0,0,0,.58-1.45V66.28A1.79,1.79,0,0,0,282.63,64.89Z" transform="translate(-4.63 -61.69)"/><path class="cls-1" d="M348.86,82.45A31.67,31.67,0,0,0,332.11,65.7,29.63,29.63,0,0,0,320,63.2a30.11,30.11,0,0,0-12.21,2.5,31.59,31.59,0,0,0-9.94,6.75,32,32,0,0,0-6.69,10,29.47,29.47,0,0,0-2.5,12.15,30,30,0,0,0,2.5,12.21,31.45,31.45,0,0,0,16.63,16.75A30.92,30.92,0,0,0,320,126a30.42,30.42,0,0,0,12.15-2.44,32.3,32.3,0,0,0,10-6.75,32,32,0,0,0,6.75-10,30.11,30.11,0,0,0,2.5-12.21A29.63,29.63,0,0,0,348.86,82.45ZM333.8,100.59a15.85,15.85,0,0,1-3.26,4.94,16.22,16.22,0,0,1-4.77,3.49A14.25,14.25,0,0,1,320,110.3a14.08,14.08,0,0,1-5.82-1.28,16.31,16.31,0,0,1-8-8.43,15.89,15.89,0,0,1,0-11.92,15.52,15.52,0,0,1,3.2-4.94,16.41,16.41,0,0,1,4.76-3.43A14.08,14.08,0,0,1,320,79a14.25,14.25,0,0,1,5.81,1.28,17.16,17.16,0,0,1,4.77,3.43,15.85,15.85,0,0,1,3.26,4.94A16.21,16.21,0,0,1,335,94.6,16.05,16.05,0,0,1,333.8,100.59Z" transform="translate(-4.63 -61.69)"/><path class="cls-1" d="M404.56,110.3a1.86,1.86,0,0,0-1.39-.58H378.22a2,2,0,0,1-1.45-.58,2.08,2.08,0,0,1-.52-1.4V66.28a1.92,1.92,0,0,0-.59-1.39,1.9,1.9,0,0,0-1.45-.58H361.82a1.76,1.76,0,0,0-1.45.58,1.71,1.71,0,0,0-.58,1.39V123a1.87,1.87,0,0,0,.58,1.39,1.76,1.76,0,0,0,1.45.58h41.35a2,2,0,0,0,2-2V111.7A1.71,1.71,0,0,0,404.56,110.3Z" transform="translate(-4.63 -61.69)"/><path class="cls-1" d="M427.36,65a1.91,1.91,0,0,0-1.4-.59H413.52a1.78,1.78,0,0,0-1.46.59,2.05,2.05,0,0,0-.52,1.39V123a2.07,2.07,0,0,0,.52,1.39,1.77,1.77,0,0,0,1.46.58H426a2,2,0,0,0,2-2V66.34A1.9,1.9,0,0,0,427.36,65Z" transform="translate(-4.63 -61.69)"/><path class="cls-1" d="M496.61,82.45a31.29,31.29,0,0,0-6.75-10,31.7,31.7,0,0,0-9.94-6.75,30.11,30.11,0,0,0-12.21-2.5,29.63,29.63,0,0,0-12.15,2.5,31.29,31.29,0,0,0-10,6.75,33,33,0,0,0-6.69,10,30.46,30.46,0,0,0-2.5,12.15,31,31,0,0,0,2.5,12.21,33.78,33.78,0,0,0,6.69,10,32.3,32.3,0,0,0,10,6.75A30.42,30.42,0,0,0,467.71,126a30.92,30.92,0,0,0,12.21-2.44,32.74,32.74,0,0,0,9.94-6.75,32,32,0,0,0,6.75-10,30,30,0,0,0,2.5-12.21A29.47,29.47,0,0,0,496.61,82.45Zm-15.06,18.14a14.87,14.87,0,0,1-3.26,4.94,15.47,15.47,0,0,1-4.77,3.49,13.83,13.83,0,0,1-11.62,0,16.22,16.22,0,0,1-4.77-3.49,16.62,16.62,0,0,1-3.2-4.94,15.89,15.89,0,0,1,0-11.92,16.62,16.62,0,0,1,3.2-4.94,17.16,17.16,0,0,1,4.77-3.43,13.83,13.83,0,0,1,11.62,0,16.32,16.32,0,0,1,4.77,3.43,14.87,14.87,0,0,1,3.26,4.94,16.21,16.21,0,0,1,1.16,5.93A16.05,16.05,0,0,1,481.55,100.59Z" transform="translate(-4.63 -61.69)"/><path class="cls-2" d="M574.53,101.93c.28.2.64.46,1.05.8C575.17,102.39,574.81,102.13,574.53,101.93Z" transform="translate(-4.63 -61.69)"/><path class="cls-2" d="M581.47,88.4a8.74,8.74,0,0,1,.16,2.3A8.74,8.74,0,0,0,581.47,88.4Z" transform="translate(-4.63 -61.69)"/><path class="cls-2" d="M576.63,103.66c3.72,3.54,8.75,11.27-2.72,21.25C585.38,114.93,580.35,107.2,576.63,103.66Z" transform="translate(-4.63 -61.69)"/><path class="cls-2" d="M578.44,82.57a21.25,21.25,0,0,0-4.53-3.86h0A21.25,21.25,0,0,1,578.44,82.57Z" transform="translate(-4.63 -61.69)"/><path class="cls-3" d="M560.18,78.08c4.75,0,9.34.21,13.73.63h0c3.36-2.43,4.62-5,4.76-7.4a8.16,8.16,0,0,0,0-1.4,9.52,9.52,0,0,0-.69-2.63,14.5,14.5,0,0,0-1.87-3.21,18.41,18.41,0,0,0-1.24-1.48c-.55-.58-.92-.9-.92-.9H536.5a4.89,4.89,0,0,0-4.88,4.88V80.64a148.35,148.35,0,0,1,20.92-2.39Q556.29,78.09,560.18,78.08Z" transform="translate(-4.63 -61.69)"/><path class="cls-1" d="M574,101.57l-.05,0c5.44-3.9,7.49-7.59,7.72-10.82a8.74,8.74,0,0,0-.16-2.3,12.55,12.55,0,0,0-3-5.83,21.25,21.25,0,0,0-4.53-3.86c-4.39-.42-9-.63-13.73-.63q-3.88,0-7.64.17a148.35,148.35,0,0,0-20.92,2.39v22.87A153.48,153.48,0,0,1,560.18,101Q567.38,101,574,101.57Z" transform="translate(-4.63 -61.69)"/><path class="cls-4" d="M576.63,103.66c-.37-.36-.72-.66-1-.93s-.77-.6-1.05-.8l-.52-.36h0q-6.59-.61-13.78-.62a153.48,153.48,0,0,0-28.56,2.56V120a4.89,4.89,0,0,0,4.88,4.88h37.41C585.38,114.93,580.35,107.2,576.63,103.66Z" transform="translate(-4.63 -61.69)"/><path class="cls-5" d="M577.77,79.07c-1.25-.15-2.56-.26-3.86-.36h0a21.25,21.25,0,0,1,4.53,3.86,12.55,12.55,0,0,1,3,5.83,8.74,8.74,0,0,1,.16,2.3c-.23,3.23-2.28,6.92-7.72,10.82l.05,0h0c1.88.11,3.71.32,5.48.53a121.1,121.1,0,0,1,15.35,2.76V82.05a123.12,123.12,0,0,0-16.86-3Z" transform="translate(-4.63 -61.69)"/><path class="cls-6" d="M590,61.69H573.91s.37.32.92.9a18.41,18.41,0,0,1,1.24,1.48,14.5,14.5,0,0,1,1.87,3.21,9.52,9.52,0,0,1,.69,2.63,8.16,8.16,0,0,1,0,1.4c-.14,2.39-1.4,5-4.76,7.4,1.3.1,2.61.21,3.86.36H578a123.12,123.12,0,0,1,16.86,3V66.57A4.88,4.88,0,0,0,590,61.69Z" transform="translate(-4.63 -61.69)"/><path class="cls-7" d="M574,101.57l.52.36c.28.2.64.46,1.05.8s.68.57,1,.93c3.72,3.54,8.75,11.27-2.72,21.25H590a4.88,4.88,0,0,0,4.88-4.88V104.86a121.1,121.1,0,0,0-15.35-2.76C577.72,101.89,575.89,101.68,574,101.57Z" transform="translate(-4.63 -61.69)"/></svg>